<svg width="28" height="19" viewBox="0 0 28 19" fill="none" xmlns="http://www.w3.org/2000/svg">
<path fill-rule="evenodd" clip-rule="evenodd" d="M21.1502 0C22.1446 0 23.0434 0.101076 23.8465 0.303235C24.6497 0.505394 25.3382 0.820519 25.9118 1.24862C26.4855 1.67672 26.9317 2.22968 27.2505 2.9075C27.5692 3.58533 27.7285 4.3999 27.7285 5.35123V18.872H24.4776V6.77822C24.4776 6.20742 24.4266 5.67231 24.3246 5.17286C24.2226 4.67341 24.0314 4.23937 23.7509 3.87072C23.4705 3.50208 23.0816 3.21074 22.5844 2.99669C22.0872 2.78264 21.4434 2.67562 20.653 2.67562C19.0466 2.67562 17.7845 3.10371 16.8666 3.95991C15.9487 4.81611 15.4897 5.9577 15.4897 7.3847V18.872H12.2388V6.77822C12.2388 6.18364 12.1814 5.63663 12.0667 5.13718C11.952 4.63773 11.7544 4.20369 11.4739 3.83505C11.1934 3.46641 10.8173 3.18101 10.3456 2.97885C9.87391 2.77669 9.26835 2.67562 8.52892 2.67562C7.58551 2.67562 6.77597 2.85399 6.10028 3.21074C5.42459 3.56749 4.8764 3.99558 4.45569 4.49503C4.03498 4.99448 3.72901 5.51176 3.53778 6.04689C3.34655 6.58202 3.25093 7.02795 3.25093 7.3847V18.872H0V0.428098H3.0597V3.13939H3.13619C4.61506 1.04645 6.74408 0 9.52332 0C10.7472 0 11.8563 0.23783 12.8507 0.713497C13.8452 1.18916 14.5463 1.99779 14.9543 3.13939C15.6172 2.14049 16.4905 1.36754 17.5742 0.820522C18.6578 0.273505 19.8498 0 21.1502 0Z" fill="#18191F"/>
</svg>
