<svg width="14" height="10" viewBox="0 0 14 10" fill="none" xmlns="http://www.w3.org/2000/svg">
<path fill-rule="evenodd" clip-rule="evenodd" d="M2.50139 0.489005H11.4809C11.9886 0.475536 12.4851 0.646566 12.8866 0.973127L12.3749 1.32146L6.97429 4.97009L5.5686 4.0107C5.53964 3.98173 5.50513 3.95959 5.46739 3.94576L1.60456 1.31851L1.0957 0.973127C1.49119 0.634869 1.99193 0.4624 2.50139 0.489005ZM0.742236 1.42773L1.21736 1.75245L4.93118 4.28819L1.25109 8.30286L0.85188 8.7368C0.574503 8.3301 0.428663 7.8407 0.435797 7.34052L0.438608 2.64985C0.434637 2.22137 0.539431 1.79953 0.742236 1.42773ZM12.342 8.70076L8.58878 4.61523L7.15498 5.58938L7.10719 5.613H7.0847C7.06136 5.6161 7.03775 5.6161 7.01441 5.613C6.99108 5.6161 6.96746 5.6161 6.94413 5.613H6.92164L6.85416 5.58938L5.43161 4.62114L1.65874 8.71256L1.25391 9.15241C1.62522 9.40318 2.06102 9.52786 2.50216 9.50959H11.4986C11.938 9.51255 12.3687 9.38126 12.7384 9.13174L12.342 8.70076ZM13.5623 2.65866V7.34048C13.5811 7.83962 13.4384 8.33071 13.1574 8.7338L12.7554 8.29396L9.07812 4.27633L12.7891 1.7524L13.2671 1.43064C13.4726 1.80307 13.5748 2.22841 13.5623 2.65866Z" fill="white"/>
</svg>
