<svg xmlns="http://www.w3.org/2000/svg" xmlns:xlink="http://www.w3.org/1999/xlink" width="500" zoomAndPan="magnify" viewBox="0 0 375 374.999991" height="500" preserveAspectRatio="xMidYMid meet" version="1.0"><defs><g/><clipPath id="51552866c7"><path d="M 157.214844 132 L 178 132 L 178 162 L 157.214844 162 Z M 157.214844 132 " clip-rule="nonzero"/></clipPath><clipPath id="c54ce41800"><path d="M 157.214844 131 L 179 131 L 179 163 L 157.214844 163 Z M 157.214844 131 " clip-rule="nonzero"/></clipPath><clipPath id="320fc9c31f"><path d="M 197 132 L 217.964844 132 L 217.964844 162 L 197 162 Z M 197 132 " clip-rule="nonzero"/></clipPath><clipPath id="0184188eda"><path d="M 196 131 L 217.964844 131 L 217.964844 163 L 196 163 Z M 196 131 " clip-rule="nonzero"/></clipPath><clipPath id="05f779fdcf"><path d="M 177 123.375 L 198 123.375 L 198 170.625 L 177 170.625 Z M 177 123.375 " clip-rule="nonzero"/></clipPath></defs><rect x="-37.5" width="450" fill="#ffffff" y="-37.499999" height="449.999989" fill-opacity="1"/><rect x="-37.5" width="450" fill="#ffffff" y="-37.499999" height="449.999989" fill-opacity="1"/><rect x="-37.5" width="450" fill="#171810" y="-37.499999" height="449.999989" fill-opacity="1"/><g clip-path="url(#51552866c7)"><path fill="#03fa6e" d="M 176.378906 161.898438 C 176.042969 161.898438 175.714844 161.785156 175.449219 161.574219 L 158.460938 148.183594 C 158.09375 147.894531 157.886719 147.464844 157.886719 147 C 157.886719 146.535156 158.09375 146.101562 158.460938 145.8125 L 175.449219 132.421875 C 175.714844 132.214844 176.042969 132.101562 176.378906 132.101562 C 176.84375 132.101562 177.277344 132.308594 177.5625 132.675781 C 177.808594 132.992188 177.921875 133.386719 177.875 133.785156 C 177.828125 134.183594 177.625 134.542969 177.3125 134.792969 L 161.828125 147 L 177.3125 159.203125 C 177.625 159.457031 177.828125 159.8125 177.875 160.210938 C 177.921875 160.613281 177.808594 161.003906 177.5625 161.324219 C 177.277344 161.6875 176.84375 161.898438 176.378906 161.898438 " fill-opacity="1" fill-rule="nonzero"/></g><g clip-path="url(#c54ce41800)"><path fill="#5e17eb" d="M 176.378906 131.457031 C 175.902344 131.457031 175.433594 131.621094 175.054688 131.917969 L 158.0625 145.308594 C 157.542969 145.722656 157.246094 146.335938 157.246094 147 C 157.246094 147.660156 157.542969 148.277344 158.0625 148.6875 L 175.054688 162.082031 C 175.429688 162.375 175.902344 162.539062 176.378906 162.539062 C 177.042969 162.539062 177.660156 162.238281 178.066406 161.71875 C 178.421875 161.269531 178.578125 160.707031 178.511719 160.136719 C 178.445312 159.566406 178.160156 159.054688 177.707031 158.699219 L 162.863281 147 L 177.707031 135.296875 C 178.160156 134.941406 178.445312 134.429688 178.511719 133.863281 C 178.578125 133.292969 178.421875 132.730469 178.066406 132.277344 C 177.660156 131.753906 177.042969 131.457031 176.378906 131.457031 Z M 176.378906 132.742188 C 176.636719 132.742188 176.890625 132.855469 177.058594 133.070312 C 177.355469 133.449219 177.289062 133.992188 176.914062 134.289062 L 160.789062 147 L 176.914062 159.710938 C 177.289062 160.003906 177.355469 160.550781 177.058594 160.925781 C 176.890625 161.144531 176.636719 161.257812 176.378906 161.257812 C 176.191406 161.257812 176.007812 161.195312 175.847656 161.070312 L 158.855469 147.679688 C 158.648438 147.515625 158.527344 147.261719 158.527344 147 C 158.527344 146.730469 158.648438 146.484375 158.855469 146.320312 L 175.847656 132.925781 C 176.003906 132.800781 176.191406 132.742188 176.378906 132.742188 " fill-opacity="1" fill-rule="nonzero"/></g><g clip-path="url(#320fc9c31f)"><path fill="#03fa6e" d="M 198.796875 161.898438 C 198.332031 161.898438 197.902344 161.6875 197.613281 161.324219 C 197.101562 160.671875 197.214844 159.71875 197.867188 159.203125 L 213.351562 147 L 197.867188 134.792969 C 197.214844 134.277344 197.101562 133.328125 197.613281 132.675781 C 197.902344 132.308594 198.332031 132.101562 198.796875 132.101562 C 199.132812 132.101562 199.464844 132.214844 199.726562 132.421875 L 216.71875 145.8125 C 217.082031 146.101562 217.289062 146.535156 217.289062 147 C 217.289062 147.464844 217.082031 147.894531 216.714844 148.183594 L 199.726562 161.574219 C 199.464844 161.785156 199.132812 161.898438 198.796875 161.898438 " fill-opacity="1" fill-rule="nonzero"/></g><g clip-path="url(#0184188eda)"><path fill="#5e17eb" d="M 198.796875 131.457031 C 198.136719 131.457031 197.519531 131.753906 197.109375 132.277344 C 196.378906 133.210938 196.539062 134.5625 197.46875 135.296875 L 212.316406 147 L 197.46875 158.703125 C 196.539062 159.433594 196.378906 160.789062 197.109375 161.71875 C 197.519531 162.238281 198.136719 162.539062 198.796875 162.539062 C 199.277344 162.539062 199.746094 162.375 200.121094 162.082031 L 217.113281 148.6875 C 217.632812 148.277344 217.929688 147.660156 217.929688 147 C 217.929688 146.335938 217.632812 145.722656 217.117188 145.308594 L 200.125 131.917969 C 199.75 131.621094 199.277344 131.457031 198.796875 131.457031 Z M 198.796875 132.742188 C 198.984375 132.742188 199.175781 132.800781 199.332031 132.925781 L 216.320312 146.320312 C 216.527344 146.484375 216.648438 146.730469 216.648438 147 C 216.648438 147.261719 216.527344 147.515625 216.320312 147.679688 L 199.332031 161.070312 C 199.175781 161.195312 198.984375 161.257812 198.796875 161.257812 C 198.539062 161.257812 198.289062 161.144531 198.117188 160.925781 C 197.824219 160.550781 197.886719 160.003906 198.261719 159.710938 L 214.386719 147 L 198.261719 134.289062 C 197.886719 133.992188 197.824219 133.449219 198.117188 133.070312 C 198.289062 132.855469 198.542969 132.742188 198.796875 132.742188 " fill-opacity="1" fill-rule="nonzero"/></g><path fill="#03fa6e" d="M 179.144531 169.980469 C 178.957031 169.980469 178.777344 169.945312 178.601562 169.875 C 178.226562 169.730469 177.929688 169.449219 177.769531 169.082031 C 177.605469 168.710938 177.597656 168.300781 177.742188 167.929688 L 194.335938 124.980469 C 194.558594 124.40625 195.121094 124.019531 195.738281 124.019531 C 195.925781 124.019531 196.109375 124.054688 196.28125 124.121094 C 197.054688 124.421875 197.441406 125.296875 197.140625 126.074219 L 180.550781 169.015625 C 180.328125 169.589844 179.761719 169.980469 179.144531 169.980469 " fill-opacity="1" fill-rule="nonzero"/><g clip-path="url(#05f779fdcf)"><path fill="#5e17eb" d="M 195.738281 123.375 C 194.859375 123.375 194.054688 123.929688 193.738281 124.75 L 177.144531 167.695312 C 176.9375 168.230469 176.953125 168.8125 177.183594 169.339844 C 177.414062 169.863281 177.835938 170.269531 178.371094 170.476562 C 178.621094 170.574219 178.878906 170.621094 179.144531 170.621094 C 180.023438 170.621094 180.828125 170.070312 181.148438 169.246094 L 197.738281 126.304688 C 198.167969 125.199219 197.617188 123.949219 196.511719 123.523438 C 196.265625 123.425781 196.003906 123.375 195.738281 123.375 Z M 195.738281 124.660156 C 195.84375 124.660156 195.945312 124.679688 196.050781 124.71875 C 196.496094 124.890625 196.714844 125.390625 196.542969 125.839844 L 179.949219 168.78125 C 179.820312 169.128906 179.492188 169.335938 179.144531 169.335938 C 179.039062 169.335938 178.9375 169.320312 178.832031 169.277344 C 178.386719 169.105469 178.167969 168.601562 178.339844 168.160156 L 194.933594 125.214844 C 195.066406 124.871094 195.390625 124.660156 195.738281 124.660156 " fill-opacity="1" fill-rule="nonzero"/></g><g fill="#ffffff" fill-opacity="1"><g transform="translate(69.769332, 216.116295)"><g><path d="M 9.527344 0.539062 C 15.574219 0.539062 19.675781 -2.816406 19.675781 -10.230469 L 19.675781 -33.59375 L 13.132812 -33.59375 L 13.132812 -10.8125 C 13.132812 -7.414062 11.144531 -5.882812 8.242188 -5.882812 C 5.964844 -5.882812 3.480469 -6.917969 1.699219 -8.160156 L 0.0820312 -2.238281 C 1.90625 -0.785156 5.179688 0.539062 9.527344 0.539062 Z M 9.527344 0.539062 "/></g></g></g><g fill="#ffffff" fill-opacity="1"><g transform="translate(90.103245, 216.116295)"><g><path d="M 13.253906 0.664062 C 15.65625 0.664062 20.339844 0.125 24.273438 -0.578125 L 24.273438 -23.777344 L 17.730469 -23.777344 L 17.730469 -5.386719 C 16.195312 -5.09375 14.703125 -4.96875 13.546875 -4.96875 C 10.4375 -4.96875 8.824219 -6.046875 8.824219 -9.070312 L 8.824219 -23.777344 L 2.238281 -23.777344 L 2.238281 -8.53125 C 2.238281 -1.410156 7.375 0.664062 13.253906 0.664062 Z M 13.253906 0.664062 "/></g></g></g><g fill="#ffffff" fill-opacity="1"><g transform="translate(115.075527, 216.116295)"><g><path d="M 8.824219 0 L 8.824219 -18.433594 C 10.355469 -18.679688 11.847656 -18.847656 13.007812 -18.847656 C 16.070312 -18.847656 17.730469 -17.730469 17.730469 -14.746094 L 17.730469 0 L 24.273438 0 L 24.273438 -15.535156 C 24.273438 -22.65625 19.179688 -24.730469 13.296875 -24.730469 C 10.894531 -24.730469 6.214844 -24.191406 2.238281 -23.488281 L 2.238281 0 Z M 8.824219 0 "/></g></g></g><g fill="#ffffff" fill-opacity="1"><g transform="translate(140.04781, 216.116295)"><g><path d="M 5.507812 -26.882812 C 7.332031 -26.882812 8.78125 -27.792969 8.78125 -29.78125 C 8.78125 -31.5625 7.457031 -32.640625 5.507812 -32.640625 C 3.605469 -32.640625 2.238281 -31.5625 2.238281 -29.78125 C 2.238281 -27.792969 3.726562 -26.882812 5.507812 -26.882812 Z M 8.824219 0 L 8.824219 -23.777344 L 2.238281 -23.777344 L 2.238281 0 Z M 8.824219 0 "/></g></g></g><g fill="#ffffff" fill-opacity="1"><g transform="translate(149.531248, 216.116295)"><g><path d="M 14.871094 0.664062 C 22.65625 0.664062 28.085938 -4.722656 28.085938 -12.054688 L 28.085938 -12.09375 C 28.085938 -19.386719 22.65625 -24.730469 14.871094 -24.730469 C 7.082031 -24.730469 1.699219 -19.386719 1.699219 -12.09375 L 1.699219 -12.054688 C 1.699219 -4.722656 7.125 0.664062 14.871094 0.664062 Z M 14.871094 -5.21875 C 10.933594 -5.21875 8.285156 -8.203125 8.285156 -12.054688 L 8.285156 -12.136719 C 8.285156 -15.949219 10.894531 -18.847656 14.871094 -18.847656 C 18.886719 -18.847656 21.457031 -15.949219 21.457031 -12.136719 L 21.457031 -12.054688 C 21.457031 -8.203125 18.847656 -5.21875 14.871094 -5.21875 Z M 14.871094 -5.21875 "/></g></g></g><g fill="#ffffff" fill-opacity="1"><g transform="translate(177.692398, 216.116295)"><g><path d="M 8.824219 0 L 8.824219 -17.398438 C 9.363281 -17.523438 12.054688 -17.730469 13.046875 -17.730469 L 16.609375 -17.730469 L 16.609375 -23.777344 L 11.972656 -23.777344 C 9.816406 -23.777344 5.714844 -23.609375 2.238281 -22.863281 L 2.238281 0 Z M 8.824219 0 "/></g></g></g><g fill="#ffffff" fill-opacity="1"><g transform="translate(194.299056, 216.116295)"><g><path d="M 12.136719 0.539062 C 19.21875 0.539062 22.742188 -2.03125 22.742188 -7.167969 C 22.742188 -10.933594 20.253906 -13.253906 14.910156 -14.746094 L 13.214844 -15.203125 C 10.355469 -16.03125 9.195312 -16.609375 9.195312 -17.8125 C 9.195312 -19.136719 10.605469 -19.59375 13.007812 -19.59375 C 15.035156 -19.59375 17.894531 -19.136719 20.007812 -18.019531 L 21.914062 -22.617188 C 19.46875 -23.902344 15.824219 -24.6875 12.21875 -24.6875 C 6.046875 -24.6875 2.566406 -21.996094 2.566406 -17.605469 C 2.566406 -13.667969 4.804688 -11.351562 9.777344 -10.023438 L 12.011719 -9.445312 C 15.492188 -8.492188 16.277344 -7.953125 16.277344 -6.667969 C 16.277344 -4.929688 14.375 -4.554688 11.558594 -4.554688 C 9.15625 -4.554688 6.253906 -5.09375 3.480469 -6.296875 L 1.699219 -1.53125 C 5.09375 -0.125 8.410156 0.539062 12.136719 0.539062 Z M 12.136719 0.539062 "/></g></g></g><g fill="#ffffff" fill-opacity="1"><g transform="translate(217.117818, 216.116295)"><g><path d="M 6.089844 0.457031 C 8.203125 0.457031 9.941406 -0.539062 9.941406 -2.609375 C 9.941406 -4.472656 8.367188 -5.632812 6.089844 -5.632812 C 3.851562 -5.632812 2.238281 -4.472656 2.238281 -2.609375 C 2.238281 -0.539062 3.976562 0.457031 6.089844 0.457031 Z M 6.089844 0.457031 "/></g></g></g><g fill="#ffffff" fill-opacity="1"><g transform="translate(227.760845, 216.116295)"><g><path d="M 14.871094 0.664062 C 19.304688 0.664062 22.285156 0 25.683594 -1.65625 L 25.683594 -33.59375 L 19.136719 -33.59375 L 19.136719 -24.109375 C 17.6875 -24.4375 16.15625 -24.730469 14.621094 -24.730469 C 6.503906 -24.730469 1.699219 -19.386719 1.699219 -12.09375 L 1.699219 -12.011719 C 1.699219 -4.722656 6.75 0.664062 14.871094 0.664062 Z M 14.871094 -5.21875 C 10.5625 -5.21875 8.285156 -8.203125 8.285156 -12.011719 L 8.285156 -12.09375 C 8.285156 -15.90625 10.5625 -18.847656 14.871094 -18.847656 C 16.320312 -18.847656 17.851562 -18.515625 19.136719 -18.226562 L 19.136719 -5.757812 C 17.851562 -5.425781 16.445312 -5.21875 14.871094 -5.21875 Z M 14.871094 -5.21875 "/></g></g></g><g fill="#ffffff" fill-opacity="1"><g transform="translate(254.141192, 216.116295)"><g><path d="M 26.304688 -11.101562 C 26.304688 -19.59375 21.664062 -24.730469 14.042969 -24.730469 C 6.503906 -24.730469 1.65625 -19.511719 1.65625 -12.09375 L 1.65625 -12.054688 C 1.65625 -4.515625 6.835938 0.621094 14.828125 0.621094 C 19.46875 0.621094 22.742188 -0.828125 25.144531 -2.320312 L 22.285156 -7.414062 C 20.546875 -6.171875 18.019531 -5.136719 15.121094 -5.136719 C 11.515625 -5.136719 9.15625 -7.457031 8.492188 -10.519531 L 26.304688 -10.519531 Z M 14 -19.386719 C 17.191406 -19.386719 19.097656 -17.316406 19.59375 -14.582031 L 8.53125 -14.582031 C 9.15625 -17.316406 11.144531 -19.386719 14 -19.386719 Z M 14 -19.386719 "/></g></g></g><g fill="#ffffff" fill-opacity="1"><g transform="translate(280.562966, 216.116295)"><g><path d="M 13.132812 -4.640625 L 7.375 -23.777344 L 0.496094 -23.777344 L 8.617188 0 L 17.644531 0 L 25.765625 -23.777344 L 18.886719 -23.777344 Z M 13.132812 -4.640625 "/></g></g></g></svg>