<svg width="15" height="15" viewBox="0 0 15 15" fill="none" xmlns="http://www.w3.org/2000/svg">
<path d="M14.4254 1.02949L14.4254 1.02949C14.585 1.16799 14.7038 1.34738 14.7691 1.54837C14.8344 1.74935 14.8437 1.96433 14.7959 2.17019L12.2991 13.0738L12.2991 13.0739C12.254 13.27 12.1586 13.4509 12.0222 13.5988C11.8861 13.7464 11.714 13.8559 11.5227 13.9167C11.4055 13.9577 11.2819 13.9774 11.1578 13.9749M14.4254 1.02949L10.3957 13.6844C10.6063 13.8701 10.877 13.9733 11.1578 13.9749M14.4254 1.02949L14.4245 1.02873C14.2633 0.892153 14.0681 0.801803 13.8597 0.76728C13.6513 0.732759 13.4374 0.755347 13.2408 0.832644C13.2408 0.832649 13.2408 0.832654 13.2408 0.832659L0.983207 5.64673L14.4254 1.02949ZM11.1578 13.9749C11.1575 13.9749 11.1572 13.9749 11.157 13.9749L11.159 13.8749L11.1585 13.9749C11.1583 13.9749 11.158 13.9749 11.1578 13.9749ZM4.21256 12.2811C4.21244 12.5115 4.28074 12.7366 4.40881 12.9281C4.53687 13.1195 4.71892 13.2686 4.93185 13.3565L4.93265 13.3568C5.07313 13.4133 5.22304 13.4428 5.37447 13.4437L5.37471 13.4437C5.52755 13.4442 5.67898 13.4143 5.8201 13.3556C5.96111 13.2969 6.08901 13.2108 6.19633 13.1021C6.19643 13.102 6.19652 13.1019 6.19662 13.1018L7.85623 11.4486L10.3956 13.6843L4.31256 12.2812M4.21256 12.2811L4.31256 12.2812M4.21256 12.2811V12.2812H4.31256M4.21256 12.2811V8.4719M4.31256 12.2812V8.38978M4.21256 8.4719L4.29311 8.48787L4.31256 8.38978M4.21256 8.4719L1.17866 7.8703L1.17848 7.87026C0.931966 7.82093 0.708084 7.69301 0.54041 7.50569C0.372852 7.3185 0.270449 7.08206 0.248529 6.8318M4.21256 8.4719V8.38978H4.31256M4.31256 8.38978L0.248529 6.8318M0.248529 6.8318C0.248546 6.83197 0.248562 6.83214 0.248579 6.83231L0.348106 6.8226M0.248529 6.8318L1.19811 7.77221C0.972794 7.72712 0.768171 7.6102 0.614921 7.43899C0.461671 7.26779 0.368053 7.05151 0.348106 6.8226M0.248529 6.8318C0.248514 6.83162 0.248499 6.83145 0.248484 6.83128L0.348106 6.8226M0.248529 6.8318C0.224171 6.58114 0.282823 6.32942 0.415475 6.11534C0.54813 5.90125 0.747439 5.73667 0.982745 5.6469L0.982253 5.6471L1.01881 5.74018C0.803795 5.82209 0.621671 5.97242 0.500479 6.16801C0.379287 6.36359 0.325748 6.5936 0.348106 6.8226M9.97807 3.46779L4.69443 7.28048L1.76431 6.69799L9.97807 3.46779ZM6.90246 10.6124L5.47506 12.0398V9.3549L6.90246 10.6124ZM13.4193 2.54359L11.1057 12.6265L5.85396 8.0057L13.4193 2.54359Z" fill="white" stroke="white" stroke-width="0.2"/>
</svg>
